<svg width="32" height="32" viewBox="0 0 32 32" fill="none" xmlns="http://www.w3.org/2000/svg">
  <!-- Background circle with gradient -->
  <defs>
    <linearGradient id="bgGradient" x1="0%" y1="0%" x2="100%" y2="100%">
      <stop offset="0%" style="stop-color:#3B82F6;stop-opacity:1" />
      <stop offset="100%" style="stop-color:#1E40AF;stop-opacity:1" />
    </linearGradient>
    <linearGradient id="iconGradient" x1="0%" y1="0%" x2="100%" y2="100%">
      <stop offset="0%" style="stop-color:#FFFFFF;stop-opacity:1" />
      <stop offset="100%" style="stop-color:#E5E7EB;stop-opacity:1" />
    </linearGradient>
  </defs>
  
  <!-- Background -->
  <circle cx="16" cy="16" r="15" fill="url(#bgGradient)" stroke="#1E40AF" stroke-width="2"/>
  
  <!-- AI Brain/Circuit pattern -->
  <g fill="url(#iconGradient)" opacity="0.9">
    <!-- Central AI core -->
    <circle cx="16" cy="16" r="3" fill="url(#iconGradient)"/>
    
    <!-- Neural connections -->
    <path d="M13 13L16 16M19 13L16 16M13 19L16 16M19 19L16 16" stroke="url(#iconGradient)" stroke-width="1.5" stroke-linecap="round"/>
    
    <!-- News lines (representing text) -->
    <rect x="6" y="8" width="8" height="1.5" rx="0.75" fill="url(#iconGradient)" opacity="0.8"/>
    <rect x="6" y="11" width="6" height="1.5" rx="0.75" fill="url(#iconGradient)" opacity="0.6"/>
    
    <!-- Audio waves -->
    <g stroke="url(#iconGradient)" stroke-width="1.5" stroke-linecap="round" fill="none" opacity="0.7">
      <path d="M22 12C23.5 13.5 23.5 18.5 22 20"/>
      <path d="M24 10C26 12 26 20 24 22"/>
    </g>
    
    <!-- Small dots for circuit nodes -->
    <circle cx="10" cy="10" r="1" fill="url(#iconGradient)" opacity="0.6"/>
    <circle cx="22" cy="10" r="1" fill="url(#iconGradient)" opacity="0.6"/>
    <circle cx="10" cy="22" r="1" fill="url(#iconGradient)" opacity="0.6"/>
  </g>
</svg> 